<svg id="Layer_1" data-name="Layer 1" xmlns="http://www.w3.org/2000/svg" viewBox="0 0 199.21 135.63"><defs><style>.cls-1{fill:#73c69e;}.cls-2{font-size:36px;font-family:NimitzClean, Nimitz Clean;}.cls-2,.cls-5{fill:#676648;}.cls-3{letter-spacing:0.05em;}.cls-4{letter-spacing:0.03em;}</style></defs><title>newest_logo</title><path class="cls-1" d="M271.93,348.77a6.91,6.91,0,0,0-6.86-6.93h-3.41v13.8h3.41a6.89,6.89,0,0,0,6.86-6.87m15.48,27.5H274.92L265,362.51h-3.34v13.73h-11V335h15.77c9.1,0,16.52,6.19,16.52,13.79,0,4.64-2.85,8.79-7.18,11.32l11.65,16.18" transform="translate(-189.22 -283.6)"/><path class="cls-1" d="M299.82,351.25c-2.9,0-5.38,3.95-5.38,8.84s2.48,8.85,5.38,8.85,5.45-3.95,5.45-8.85-2.47-8.84-5.45-8.84m16.95,8.84a16.92,16.92,0,1,1-16.95-16.82,16.86,16.86,0,0,1,16.95,16.82M342.61,344l-12.69,12.68V343.91h-11v32.33h11V363.13l13.25,13.11H357l-16.83-16.82,13.94-13.94v19.19c0,6.37,3.83,12.25,13.48,12.25A15.32,15.32,0,0,0,378.44,372l4.95,4.27h2.35V344h-11v20.91a6.17,6.17,0,0,1-5.64,3.52c-2.71,0-3.95-1.6-3.95-6.74V344Z" transform="translate(-189.22 -283.6)"/><text class="cls-2" transform="translate(91.14 115.52)">FL<tspan class="cls-3" x="20.66" y="0">ASHBA</tspan><tspan class="cls-4" x="84.27" y="0">C</tspan><tspan x="96.08" y="0">K</tspan></text><path class="cls-5" d="M189.26,419.23l45.91-54.29H227l21.91-36.76h-11l25.34-44.58-49,57.15,8.24-.19-22.72,39.62h9.34S188.3,416.56,189.26,419.23Z" transform="translate(-189.22 -283.6)"/></svg>